<svg xmlns="http://www.w3.org/2000/svg" style="display:none">
  <!-- HôteSmart — sprite d'icônes (style Lucide, 24×24, trait 1.75).
       Nommage par SENS, jamais par dessin. Changer une icône = remplacer un <symbol>.
       Usage : <svg class="icon" aria-hidden="true"><use href="/shared/icons.svg#i-arrival"/></svg> -->

  <!-- Navigation -->
  <symbol id="i-today" viewBox="0 0 24 24"><circle cx="12" cy="12" r="9"/><path d="M12 7v5l3 2"/></symbol>
  <symbol id="i-calendar" viewBox="0 0 24 24"><rect x="3" y="5" width="18" height="16" rx="2"/><path d="M3 10h18M8 3v4M16 3v4"/></symbol>
  <symbol id="i-message" viewBox="0 0 24 24"><path d="M21 12a8 8 0 0 1-11.6 7.1L4 20l1-4.6A8 8 0 1 1 21 12Z"/></symbol>
  <symbol id="i-cleaning" viewBox="0 0 24 24"><path d="m12 3 1.9 5.1L19 10l-5.1 1.9L12 17l-1.9-5.1L5 10l5.1-1.9Z"/><path d="M19 16v4M17 18h4"/></symbol>
  <symbol id="i-home" viewBox="0 0 24 24"><path d="M4 11l8-7 8 7v9a1 1 0 0 1-1 1h-4v-6h-6v6H5a1 1 0 0 1-1-1Z"/></symbol>
  <symbol id="i-menu" viewBox="0 0 24 24"><path d="M4 7h16M4 12h16M4 17h16"/></symbol>
  <symbol id="i-bell" viewBox="0 0 24 24"><path d="M6 8a6 6 0 1 1 12 0c0 7 3 8 3 8H3s3-1 3-8"/><path d="M10 20a2 2 0 0 0 4 0"/></symbol>
  <symbol id="i-settings" viewBox="0 0 24 24"><path d="M4 7h10M18 7h2M4 17h4M12 17h8"/><circle cx="16" cy="7" r="2"/><circle cx="10" cy="17" r="2"/></symbol>
  <symbol id="i-search" viewBox="0 0 24 24"><circle cx="11" cy="11" r="7"/><path d="m20 20-3.5-3.5"/></symbol>
  <symbol id="i-globe" viewBox="0 0 24 24"><circle cx="12" cy="12" r="9"/><path d="M3 12h18M12 3a14 14 0 0 1 0 18M12 3a14 14 0 0 0 0 18"/></symbol>

  <!-- Événements -->
  <symbol id="i-arrival" viewBox="0 0 24 24"><path d="M14 3h5a2 2 0 0 1 2 2v14a2 2 0 0 1-2 2h-5"/><path d="M3 12h11M10 8l4 4-4 4"/></symbol>
  <symbol id="i-departure" viewBox="0 0 24 24"><path d="M10 3H5a2 2 0 0 0-2 2v14a2 2 0 0 0 2 2h5"/><path d="M10 12h11M17 8l4 4-4 4"/></symbol>
  <symbol id="i-key" viewBox="0 0 24 24"><circle cx="8" cy="15" r="4"/><path d="m10.9 12.1 8.6-8.6M15 7l2 2M18 4l2 2"/></symbol>
  <symbol id="i-price" viewBox="0 0 24 24"><path d="M3 17l6-6 4 4 8-8"/><path d="M15 7h6v6"/></symbol>
  <symbol id="i-euro" viewBox="0 0 24 24"><path d="M18 6.5A7 7 0 1 0 18 17.5"/><path d="M4 10h9M4 14h9"/></symbol>
  <symbol id="i-review" viewBox="0 0 24 24"><path d="m12 3 2.8 5.7 6.2.9-4.5 4.4 1 6.2L12 17.3 6.5 20.2l1-6.2L3 9.6l6.2-.9Z"/></symbol>
  <symbol id="i-ai" viewBox="0 0 24 24"><rect x="4" y="7" width="16" height="12" rx="3"/><path d="M12 3v4M9 13h.01M15 13h.01"/></symbol>
  <symbol id="i-shield" viewBox="0 0 24 24"><path d="M12 3 4 6v6c0 5 3.5 8 8 9 4.5-1 8-4 8-9V6Z"/><path d="m9 12 2 2 4-4"/></symbol>
  <symbol id="i-link" viewBox="0 0 24 24"><path d="M10 14a4 4 0 0 0 5.7 0l3-3a4 4 0 0 0-5.7-5.7l-1 1"/><path d="M14 10a4 4 0 0 0-5.7 0l-3 3a4 4 0 0 0 5.7 5.7l1-1"/></symbol>
  <symbol id="i-photo" viewBox="0 0 24 24"><rect x="3" y="4" width="18" height="16" rx="2"/><circle cx="9" cy="10" r="2"/><path d="m21 16-5-5-9 9"/></symbol>

  <!-- Actions -->
  <symbol id="i-plus" viewBox="0 0 24 24"><path d="M12 5v14M5 12h14"/></symbol>
  <symbol id="i-check" viewBox="0 0 24 24"><path d="m5 12 5 5 9-10"/></symbol>
  <symbol id="i-close" viewBox="0 0 24 24"><path d="M6 6l12 12M18 6 6 18"/></symbol>
  <symbol id="i-edit" viewBox="0 0 24 24"><path d="M4 20h4l10-10-4-4L4 16Z"/><path d="m13 7 4 4"/></symbol>
  <symbol id="i-send" viewBox="0 0 24 24"><path d="M5 12h14M13 6l6 6-6 6"/></symbol>
  <symbol id="i-chevron" viewBox="0 0 24 24"><path d="m9 6 6 6-6 6"/></symbol>
  <symbol id="i-more" viewBox="0 0 24 24"><circle cx="5" cy="12" r="1.5"/><circle cx="12" cy="12" r="1.5"/><circle cx="19" cy="12" r="1.5"/></symbol>
  <symbol id="i-alert" viewBox="0 0 24 24"><circle cx="12" cy="12" r="9"/><path d="M12 8v5M12 16h.01"/></symbol>
</svg>
